<svg width="24" height="24" viewBox="0 0 24 24" fill="none" xmlns="http://www.w3.org/2000/svg">
  <path fill-rule="evenodd" clip-rule="evenodd"
    d="M20.1696 5C20.4655 5 20.6895 5.2675 20.6375 5.5588L18.4734 17.6779C18.4329 17.9045 18.2358 18.0696 18.0055 18.0696L9.46591 18.0696C9.23566 18.0696 9.03853 17.9045 8.99805 17.6779L8.40119 14.3354L5.56725 14.3354C4.14941 14.3354 3.00001 13.186 3.00001 11.7682C3.00001 10.3503 4.1494 9.20094 5.56725 9.20094L7.48432 9.20094L6.83393 5.5588C6.78191 5.2675 7.00588 5 7.30179 5L20.1696 5ZM3.93349 11.7682C3.93349 12.6705 4.66493 13.4019 5.56719 13.4019C6.46946 13.4019 7.20089 12.6705 7.20089 11.7682C7.20089 10.8659 6.46946 10.1345 5.56719 10.1345C4.66493 10.1345 3.93349 10.8659 3.93349 11.7682ZM19.5 6L8 6L8.5 9L19 9L19.5 6Z"
    fill="currentColor" />
</svg>