<svg width="152" height="56" viewBox="0 0 152 56" fill="none" xmlns="http://www.w3.org/2000/svg">
  <path
    d="M143.577 14H147.617V31.56H143.577V14ZM145.497 41.36C144.137 41.36 143.017 40.24 143.017 38.88C143.017 37.48 144.137 36.36 145.497 36.36C146.897 36.36 148.017 37.48 148.017 38.88C148.017 40.24 146.897 41.36 145.497 41.36Z"
    fill="currentColor" />
  <path
    d="M133.606 17.5203C132.166 17.5203 131.006 16.3603 131.006 14.9203C131.006 13.4803 132.166 12.2803 133.606 12.2803C135.046 12.2803 136.166 13.4803 136.166 14.9203C136.166 16.3603 135.046 17.5203 133.606 17.5203ZM131.646 21.4003H135.606V41.0003H131.646V21.4003Z"
    fill="currentColor" />
  <path
    d="M114.133 41.4799C108.453 41.4799 104.293 36.8399 104.293 31.1599C104.293 25.5599 108.773 20.9199 114.733 20.9199C120.653 20.9199 125.173 25.3199 125.173 31.1599V40.9999H121.413V37.5599C119.933 39.9599 117.333 41.4799 114.133 41.4799ZM114.733 37.7199C118.413 37.7199 121.213 34.7599 121.213 31.1999C121.213 27.5999 118.413 24.6399 114.733 24.6399C111.093 24.6399 108.253 27.5999 108.253 31.1999C108.253 34.7599 111.093 37.7199 114.733 37.7199Z"
    fill="currentColor" />
  <path
    d="M82.981 49.9999H79.021V31.1599C79.021 25.3199 83.541 20.9199 89.461 20.9199C95.381 20.9199 99.861 25.5599 99.861 31.1599C99.861 37.0799 95.581 41.4799 89.621 41.4799C86.981 41.4799 84.581 40.3199 82.981 38.5599V49.9999ZM89.461 37.7599C93.101 37.7599 95.901 34.7599 95.901 31.1999C95.901 27.5999 93.101 24.6799 89.461 24.6799C85.781 24.6799 82.981 27.5999 82.981 31.1999C82.981 34.7599 85.781 37.7599 89.461 37.7599Z"
    fill="currentColor" />
  <path
    d="M63.4676 24.7199C59.6276 24.7199 57.7076 27.8799 57.7076 31.5199V40.9999H53.7476V31.1199C53.7476 25.3999 57.1476 20.9199 63.4676 20.9199C69.8676 20.9199 73.3476 25.3999 73.3476 31.0799V40.9999H69.3876V31.5599C69.3876 27.8799 67.3876 24.7199 63.4676 24.7199Z"
    fill="currentColor" />
  <path
    d="M37.0353 41.4799C31.3553 41.4799 27.1953 36.8399 27.1953 31.1599C27.1953 25.5599 31.6753 20.9199 37.6353 20.9199C43.5553 20.9199 48.0753 25.3199 48.0753 31.1599V40.9999H44.3153V37.5599C42.8353 39.9599 40.2353 41.4799 37.0353 41.4799ZM37.6353 37.7199C41.3153 37.7199 44.1153 34.7599 44.1153 31.1999C44.1153 27.5999 41.3153 24.6399 37.6353 24.6399C33.9953 24.6399 31.1553 27.5999 31.1553 31.1999C31.1553 34.7599 33.9953 37.7199 37.6353 37.7199Z"
    fill="currentColor" />
  <path
    d="M8.28557 41.0002H4.20557V14.2002H8.28557V25.7602H12.1656C12.4456 24.8402 13.0056 23.9202 13.7656 23.0002L21.2456 14.2002H25.9256L17.5256 24.2002C16.4856 25.5202 15.8856 26.5602 15.8856 27.5602C15.8856 28.5602 16.4856 29.5202 17.5256 30.8402L26.2056 41.0002H21.1656L13.7656 32.3202C13.0056 31.4002 12.4456 30.4402 12.1656 29.5202H8.28557V41.0002Z"
    fill="currentColor" />
</svg>

