<svg width="196" height="196" viewBox="20 20 156 126" fill="none" xmlns="http://www.w3.org/2000/svg">
  <path fill-rule="evenodd" clip-rule="evenodd"
    d="M100.163 92.2934C100.521 92.3892 100.705 92.7848 100.548 93.1199L77.1654 142.98C77.0431 143.24 76.7516 143.376 76.4735 143.302L39.2107 133.317C38.9326 133.242 38.7478 132.979 38.7723 132.692L40.0965 117.168L27.5666 113.81C22.2727 112.392 19.131 106.95 20.5495 101.656L21.0458 99.8042C22.4643 94.5102 27.9058 91.3686 33.1998 92.7871L41.9755 95.1385L43.4526 77.8213C43.4841 77.4526 43.8412 77.2019 44.1987 77.2977L100.163 92.2934ZM24.6197 101.756C23.6298 105.45 25.8222 109.247 29.5166 110.237C33.2109 111.227 37.0082 109.035 37.9981 105.34C38.988 101.646 36.7957 97.8486 33.1013 96.8587C29.4069 95.8688 25.6096 98.0612 24.6197 101.756ZM94.6851 95.2144L47.5981 82.5974L46.354 95.4296L89.3465 106.949L94.6851 95.2144Z"
    fill="currentColor" />
  <path fill-rule="evenodd" clip-rule="evenodd"
    d="M95.1626 92.2934C94.8052 92.3892 94.6212 92.7848 94.7784 93.1199L118.161 142.98C118.283 143.241 118.574 143.376 118.853 143.302L156.115 133.317C156.393 133.242 156.578 132.979 156.554 132.692L155.23 117.168L167.759 113.81C173.053 112.392 176.195 106.95 174.777 101.656L174.28 99.8042C172.862 94.5102 167.42 91.3686 162.126 92.7871L153.351 95.1385L151.873 77.8213C151.842 77.4526 151.485 77.2019 151.127 77.2977L95.1626 92.2934ZM170.705 101.756C171.695 105.45 169.503 109.247 165.808 110.237C162.114 111.227 158.317 109.035 157.327 105.34C156.337 101.646 158.529 97.8486 162.224 96.8587C165.918 95.8688 169.715 98.0612 170.705 101.756ZM100.64 95.2144L147.727 82.5974L148.971 95.4296L105.978 106.949L100.64 95.2144Z"
    fill="currentColor" />
  <path
    d="M90.7709 58.7716L90.1606 60.6569L90.1507 60.6938C90.0998 60.8391 90.0049 60.9651 89.8792 61.0542C89.7536 61.1433 89.6033 61.1912 89.4493 61.1912C89.2952 61.1912 89.145 61.1433 89.0193 61.0542C88.8937 60.9651 88.7988 60.8391 88.7479 60.6938L88.1375 58.811C87.9472 58.2381 87.6259 57.7175 87.1991 57.2907C86.7722 56.8638 86.2516 56.5425 85.6788 56.3522L83.7984 55.7394C83.653 55.6885 83.5271 55.5936 83.438 55.4679C83.3489 55.3423 83.301 55.192 83.301 55.038C83.301 54.8839 83.3489 54.7337 83.438 54.608C83.5271 54.4824 83.653 54.3875 83.7984 54.3365L85.6788 53.7262C86.2531 53.5363 86.7751 53.2149 87.2033 52.7876C87.6314 52.3603 87.9539 51.8389 88.1449 51.265L88.7577 49.3822C88.8087 49.2368 88.9035 49.1109 89.0292 49.0217C89.1548 48.9326 89.3051 48.8848 89.4591 48.8848C89.6132 48.8848 89.7634 48.9326 89.8891 49.0217C90.0147 49.1109 90.1096 49.2368 90.1606 49.3822L90.7709 51.265C90.9661 51.831 91.2896 52.3442 91.7161 52.7644C92.1427 53.1846 92.6607 53.5003 93.2297 53.6868L95.11 54.2972C95.2554 54.3481 95.3813 54.443 95.4704 54.5686C95.5596 54.6943 95.6074 54.8445 95.6074 54.9986C95.6074 55.1526 95.5596 55.3029 95.4704 55.4285C95.3813 55.5542 95.2554 55.6491 95.11 55.7L93.2272 56.3153C92.6552 56.506 92.1355 56.8272 91.7092 57.2535C91.2828 57.6799 90.9616 58.1996 90.7709 58.7716Z"
    fill="currentColor" />
  <path
    d="M103.078 39.2872L102.468 41.1725L102.458 41.2094C102.407 41.3548 102.312 41.4807 102.187 41.5698C102.061 41.6589 101.911 41.7068 101.757 41.7068C101.603 41.7068 101.452 41.6589 101.327 41.5698C101.201 41.4807 101.106 41.3548 101.055 41.2094L100.445 39.3266C100.255 38.7537 99.9333 38.2331 99.5064 37.8063C99.0796 37.3794 98.559 37.0581 97.9861 36.8679L96.1058 36.255C95.9604 36.2041 95.8345 36.1092 95.7454 35.9836C95.6562 35.8579 95.6084 35.7076 95.6084 35.5536C95.6084 35.3996 95.6562 35.2493 95.7454 35.1236C95.8345 34.998 95.9604 34.9031 96.1058 34.8522L97.9861 34.2418C98.5605 34.0519 99.0825 33.7306 99.5107 33.3033C99.9388 32.876 100.261 32.3546 100.452 31.7806L101.065 29.8978C101.116 29.7524 101.211 29.6265 101.337 29.5374C101.462 29.4483 101.612 29.4004 101.767 29.4004C101.921 29.4004 102.071 29.4483 102.196 29.5374C102.322 29.6265 102.417 29.7524 102.468 29.8978L103.078 31.7806C103.273 32.3467 103.597 32.8599 104.023 33.28C104.45 33.7002 104.968 34.0159 105.537 34.2024L107.417 34.8128C107.563 34.8637 107.689 34.9586 107.778 35.0843C107.867 35.2099 107.915 35.3602 107.915 35.5142C107.915 35.6683 107.867 35.8185 107.778 35.9442C107.689 36.0698 107.563 36.1647 107.417 36.2157L105.535 36.8309C104.963 37.0216 104.443 37.3428 104.017 37.7692C103.59 38.1955 103.269 38.7152 103.078 39.2872Z"
    fill="currentColor" />
  <path
    d="M112.307 71.0792L111.696 72.9645L111.686 73.0014C111.635 73.1468 111.541 73.2727 111.415 73.3618C111.289 73.4509 111.139 73.4988 110.985 73.4988C110.831 73.4988 110.681 73.4509 110.555 73.3618C110.429 73.2727 110.334 73.1468 110.283 73.0014L109.673 71.1186C109.483 70.5457 109.162 70.0251 108.735 69.5983C108.308 69.1714 107.787 68.8501 107.214 68.6599L105.334 68.047C105.189 67.9961 105.063 67.9012 104.974 67.7755C104.885 67.6499 104.837 67.4996 104.837 67.3456C104.837 67.1915 104.885 67.0413 104.974 66.9156C105.063 66.79 105.189 66.6951 105.334 66.6442L107.214 66.0338C107.789 65.8439 108.311 65.5226 108.739 65.0953C109.167 64.668 109.49 64.1465 109.681 63.5726L110.293 61.6898C110.344 61.5444 110.439 61.4185 110.565 61.3294C110.69 61.2402 110.841 61.1924 110.995 61.1924C111.149 61.1924 111.299 61.2402 111.425 61.3294C111.55 61.4185 111.645 61.5444 111.696 61.6898L112.307 63.5726C112.502 64.1387 112.825 64.6519 113.252 65.072C113.678 65.4922 114.196 65.8079 114.765 65.9944L116.646 66.6048C116.791 66.6557 116.917 66.7506 117.006 66.8763C117.095 67.0019 117.143 67.1522 117.143 67.3062C117.143 67.4603 117.095 67.6105 117.006 67.7362C116.917 67.8618 116.791 67.9567 116.646 68.0076L114.763 68.6229C114.191 68.8136 113.671 69.1348 113.245 69.5612C112.818 69.9875 112.497 70.5072 112.307 71.0792Z"
    fill="currentColor" />
</svg>